<svg width="1600" height="1112" fill="none" xmlns="http://www.w3.org/2000/svg"><path d="M470.15-2.179c-4.614 58.223-45.14 178.148-170.325 192.062-125.184 13.914-148.334 126.651-144.261 181.28 3.153 69.098-23.291 210.306-154.295 222.346M7.893 939.405c29.57-105.019 149.081-301.518 390.556-247.36 241.475 54.158 282.296-97.605 272.522-180.256-2.691-77.698 44.585-225.663 255.219-195.928 210.63 29.734 241.04-145.306 229.91-236.544-6.88-35.9 6.89-112.204 117.01-130.223M1099.41 986.868c130.79-14.225 154.87-155.854 150.57-224.891-4.99-54.553 16.28-167.66 141.21-183.662 124.94-16.001 163.46-136.586 167.1-194.878 3.04-33.24 30.26-93.885 114.83-70.541 42.04 26.429 137.2 55.501 181.55-39.642 2.7-14.891 18.71-41.309 61.14-27.854" stroke="#80376B" stroke-opacity=".2" stroke-width="6"/><path d="M158.48 918.723c.3-.6.8-1.1 1-1.7.7-2.2 2.6-3 4.5-3.5 1.3-.4 2.6-.8 4.1-.7 3.3.2 5.7 1.8 7.3 4.6.8 1.3 1.5 2.6 1.8 4.1.2 1 .5 2.2.2 3.1-1.1 3.6-3.1 6.5-6.8 7.9-1 .4-2.1.7-3.1 1-.2.1-.4.1-.5 0-2.7-1.3-5.3-2.8-6.8-5.4-.7-1.1-1.3-2.4-1.1-3.9.2-1.7-.5-3.5.5-5.2-.4 0-.7-.1-1.1-.3zm5.4 8.3c1.4 0 2.6.2 3.7 0 2-.5 4.7-4.6 4.6-6.7 0-.3-.1-.8-.3-.9-1-.6-2.1-1.1-3.1-1.6-.6 1.1-2.5-.1-2.8 1.6-.1.7-1.8.3-1.3 1.6-1.3 1.9-.5 4-.8 6zM78.88 950.823c-.9-.2-1.4-.6-1.1-1.6.1-.1.4-.1.6-.3 1.8-1.3 3.9-1.5 5.9-2.1.9-.3 2.2 0 3 .5 2.3 1.7 4.8 3.2 5.8 6.2.9 2.5.5 5.6-1 7.6-.9 1.2-2.2 1.9-3.1 3.1-1.5-.2-3.1.4-4.7-.5-.7-.4-3.8-2.1-4.4-2.5-1.4-1.1-2-2.6-2.5-4.1-.1-.3-.3-.7-.2-1 .7-1.8.2-3.8 1.7-5.3zM218.98 896.423c.5.2.8.3 1.2.4-.3.9-.5 1.7-.8 2.5-.4 0-.9.1-1.5.2.2.3.3.4.5.7-.9 1.1-2 2-3.6 1.9-.4 0-.8.1-1.2.3-1.1.4-2.2.4-3.3-.1-.4-.2-1.1-.4-1.2-.2-1 1.3-1.9-.4-2.9-.1-.4.1-.8-1-1.7-1-.5 0-.9-.7-1.4-1-.6-.3-.8-1.2-1.7-1.1-.4-1.3-1.8-2-2.4-3.1-1.5-2.5-1.5-6.1-.3-8.5 1.1-2.1 3.2-2.8 5-1.3.9.7 1.6 1.2 2.7.4.4.6.7.3 1-.1.4-.7 1.1-.7 1.7-.6 2.2.5 4.3 1.1 6.1 2.4 1.5 1.1 2.6 2.9 3.9 4.3-.3 1.3 1.4 2.5-.1 4zm-17-1.8c2.2 2.1 5.8 3.2 8.8 3.1 1.4-.1 2.5-.6 3.4-1.5.5-.6 1.1-1.1 1.7-1.7-.3-.4-.6-.7-.7-1-.4-1.4-1.2-2.3-2.8-2.4-.7-.1-1.4-.5-2.1-.7-.5-.1-1.3-.4-1.4-.2-.7 1-1-.6-1.9.2-.5.5-1.3 1.2-2.2 2-.7-.5-1.2-.9-1.7-1.3-1.6.8-.7 2.2-1.1 3.5zM238.78 958.423c.8-.4 1.7-1.1 3.1-.6-.1.2-.3.4-.5.7.5.1 1.4.2 1.5.4.4 1.7 2.3 2.1 2.9 3.7 1 2.6 1.8 5.2.4 8-.2.3-.3.4-.1.8.6 1.2 0 2-1 2.6-.8.4-.3.8.1 1.3-.9 1.2-1.9 2.4-2.8 3.6h-3c-.6-.6-1.2-1.3-1.9-2-.6-.7-1.4-1.1-1.9-1.9-1.2-1.8-1.5-3.7-1-5.7.3-1.5 1.1-3 1.5-4.5.2-1 .5-1.8 1.5-2.4.4-.2.7-1 .7-1.6 0-.8.5-1.1.9-1.6-.1-.1-.3-.5-.4-.8zM261.38 882.423c-.4.6-.8 1.1-1.1 1.7-.2-.2-.5-.6-.6-.6-1.9.3-2.6-1.6-3.9-2.3-.1-.1-.2-.6-.2-.7 1.4-1.2-.1-2-.3-3-.2.2-.4.4-.6.5-.1-.1-.2-.1-.2-.2.1-1.2-.6-2.5.6-3.5.3-.2.2-.8.4-1.2.5-.9.7-2.1 1.6-2.7 1-.6.6-1.8 1.6-2.5 1.6-1.2 4.2-1.8 6.1-1.1 2.8 1 4.6 3.2 5.6 5.7.8 2.1 1.2 4.4.8 6.7-.2 1.3-1.4 2.2-2.4 3-.3.2-1.1-.1-1.8-.2 0 .2.1.6.2.9.3.4.4.9-.2 1-.6.2-.8-.2-.7-.8 0-.1-.2-.2-.5-.4-.4.4-.9.7-1.4 1.2-.1-.3-.2-.6-.3-1.2-.7.7-1.4 1.3-2.3 2.1-.1-.9-.2-1.6-.4-2.4zm5.1-9.6c-.1-.1-.3-.2-.4-.4-.4-1.1-1.6-.9-2.5-1.2-.4-.2-1.2.6-1.9.9-.3.2-.8 1.1-1.2 1.7-.3.5-.6 1.3-1 1.4-.9.1-.7.6-.8 1.1-.1.4-.3.7-.4 1 1.9 1.9 3.7 1.1 5.7.2 2.2-1 2.6-2.7 2.5-4.7zM123.979 910.523c.5.4.7.6.9.8.2-.3.3-1 .5-1 .6-.1 1.4-.2 1.8.1 1.3.9 2.6 1.9 3.6 3.1.9 1.2 1.5 2.6 1.9 4.1.2.8.1 1.8-.4 2.8-1 2.1-2 3.9-4.1 5.1-.9.5-2 .6-2.8 1.1-.3.2-.8.3-1.2.5-.1-.3-.3-.6-.5-.9-.3.4-.5.4-1 .1-.8-.6-2.5-2.1-3.2-2.7-2.3-1.9-1-4.2-.9-6.3 0-.5.9-1 1.4-1.6 1.9 1 2.8 2.6 3.5 4.4 1.8-.2 2.1-1.9 3.1-2.9.2-.2.1-.8.1-1.7l-2 2c-1.4-.1-1.2-1.8-2.4-1.9 0-1.1-.2-2.2 0-3.2.4-.8 1.1-1.2 1.7-1.9zM228.18 839.623l2-2h3.4c.4-1.5-.7-.9-1.4-1.1.1-.2.1-.4.2-.5.9-.7-.4-1-.3-1.8.6-1.4 2.2-1.6 3.4-2.4.3-.2 1-.1 1.4.1 2.2.9 3 2.9 3.9 4.9.6 1.3 0 2.8 1 3.9-.4 1.5-.6 3.1-1.3 4.4-.8 1.4-2.4 2.1-3.9 2.3-.8.1-1.6 1.1-2.4.4-.7-.5-1.7-.2-2.3-1.1-.5-.6-1.5-.7-1.7-1.7-.1-.5-1.1-.6-1.6-1.4-.6-1.4 0-2.7-.4-4zM216.18 926.823c-.3-.6-.7-1.3-1-1.9.3-1.6 2.2-1.2 2.8-2.4.6-1.2 2.4-.7 3.4-2-.4-.3-.8-.5-1.1-.8.1-.1.1-.3.2-.3 1.8-.3 3.2.6 4.4 1.8 1 .9 1.6 2.2 2.4 3.3.4.6-.3 1.2.3 1.6.6.4.8.9.7 1.6-.1.7.6 1.5.5 1.9-.3.9-.3 1.9-.6 2.7-.6 1.6-1.4 3.1-2.7 4.3-.7.7-1.8.9-3.1.7-3.1-.5-3.2-.5-4.6-2.1-1.1-1.2-1.8-2.6-2.1-4.3-.2-1-.7-1.8-.1-2.8-.9-.6.5-.6.6-1.3zm2.5-1.8c.3 1.4.6 2.5.9 3.6.1.3.1.7 0 .8-1.2 1.1-.1 2 .2 3 2.1 0 2-.1 3.1-1.6 1.3-1.8 1.1-3.8 1-5.8 0-.4-.4-.8-.7-1.1-.6-.5-1.6.3-2.2-.6l-.6.9c-1-.6-1.2.5-1.7.8zM143.08 852.823c2.5 1.4 3.1 2.6 1.7 4.7-.7 1.1.2 2.3-.8 3.2-.1.1.2.9.4 1.3.4 1.2.8 1.3 2.2 1 2.6-.7 3.8-2.5 4.4-5-1-.3-1.9-.5-2.9-.8-1.2-.4-.7-1.7-1.2-2.3l1.8-1.8c1.7-.9 2.7.9 4.2 1.3 1.1 1.8 2.7 3.4 2.5 5.8-.2 3-1.5 5.6-4.8 6.8-2.8 1-5 .6-7.3-1.5-1.4-1.3-2.6-2.6-2.7-4.9-.3-2.9.3-5.6 2.5-7.8zM139.18 964.623c-2.4.7-3.7-.9-5.3-1.9-1.5-.9-1.6-2.6-2.1-4-.4-1.3.4-2.7.9-3.9.4-1.1 1.1-2 1.6-3-.2-.1-.6-.2-.9-.3.4-.4.8-.8 1.2-1.3-.6-.1-1.1-.2-1.9-.3.5-.4.9-.9 1.2-.9.9.1 1.9-.3 2.9.3 2.5 1.4 3.8 3.7 4.8 6.2 1.2 3.4.5 6.5-2.4 9.1zM169.48 977.623c-.3.5-.5 1-.7 1.5 1.8 1.8 2.5 4.1 2.2 6.6-.1.6-.1 1.1-.5 1.7-.9 1.1-1 2.7-2.7 3.2-.7.2-1.5.5-2 .2-1.4-.7-2.9-1.2-3.8-2.6-.4-.7-.8-1.4-.9-2.3-.3-3 .9-5.5 2.5-8 .3-.5.9-.9 1.6-1.2.8-.4 1.3-.7 2.1-.1.7.4 1.4.6 2.2 1zM267.88 915.123c-1.1-.8-1.7-2.3-3.4-2.3-.4-.7-1.1-1.4-1.2-2.2-.3-1.9.1-3.6 2.1-4.5.2-.1.4-.4.6-.6-.3-.1-.6-.2-.7-.2l1.6-1.6-.4-.4c.2 0 .5-.1.7-.1 1.1.2 2.4-.6 3.3.6 1.2 1.5 2.1 3 2.5 4.9.5 2.5-2 5.3-3.8 6.2-.5.2-1.1-.7-1.3.2zM195.58 948.323v1.5c.3 1.9-1.3 2.5-2.3 3.3-1.1.8-2.1-.4-3.1-.7-.9-.3-1.7-1.2-2.5-1.9-1.3-1.2-1.8-3.9-1-5.5.2-.4 0-1 .9-1.1.5 0 1-.9 1.5-1.4 1.1-1.4 2.1-1.6 3.3-.3.8.8 1.7 1.5 2.2 2.6.6 1.2 1.3 2.4 1 3.5zM165.88 886.223c1.2 1.3 2.5 2.4 3.1 4.1.8 2.2.3 3.4-1.5 4.7-2.1 1.5-3.6 1.2-5.4-.7l-.7-.7c-.3-1 .4-2.1-.6-2.8-.6-2.5 1.1-4.6 3.8-4.6h1.3zM191.18 858.223c.5-.4.8-.6 1.1-.9-.4-.3-.7-.6-1-.9.1-.2.3-.3.5-.6-.6-.1-1.2-.3-1.8-.4.8-2.1 2.7-2.2 4.2-2.9.3-.1.9.3 1.3.5 1.5 1.2 2.5 2.6 3.3 4.3.1.2.2.6.1.7-1.3 1.1.4 3.2-1.3 4-.3.1-1.1-.7-2-.8.4.4.7.8 1.1 1.2-.7.4-1.3.9-2 1.3-.2.1-.5 0-.8 0-.2 0-.5-.1-.4-.2.2-1.5-1.6-.4-1.8-1.4-.1-.5-.5-.9-.5-1.4v-2.5zM195.08 818.223v-1.2h2.4c1.2 1.8 2.9 3.6 2.3 6.4-.4 0-.9.1-1.6.1v-2.2c-.4.1-.8 0-.9.2-.2.2-.2.6-.4.9-.3.5-.5.4-1-.3-.3-.5-.7-.9-1.2-1.4.6-.3.9-.4 1.3-.6-1.1-.6-1.1-.5-.2-1.5.2-.2.1-.6.1-1.1-.2.2-.4.3-.8.7z" fill="#FEFBF4"/><path d="M-44.177 844.319c-11.178 8.814-21.812 18.305-32.018 28.223a1.317 1.317 0 00-.345-.323 384.075 384.075 0 006.28-6.162c6.445-6.381 13.351-12.19 20.216-18.051 5.083-4.343 10.7-7.915 16.684-10.924 7.089-3.555 13.664-8.068 20.313-12.384 12.87-8.202 26.056-15.799 40.111-21.781 1.095-.452 2.262-1.133 3.326-1.302 2.66-.424 5.121-1.63 7.835-1.667 1.471.017 2.857-.925 4.507-.794 4.436.293 8.692-.813 12.949-1.491 6.677-1.08 13.448-2.15 20.08-.62 12.164 2.654 23.831 6.394 34.127 13.123 10.694 7.01 18.762 16.301 23.685 28.292 2.099 5.172 4.553 10.145 5.224 15.779.351 2.89.316 5.834.281 8.777-.096 3.507.382 6.982-.195 10.531-.865 4.897-1.678 9.753-3.013 14.598-1.356 5.034.377 9.643 2.746 14.084 2.914 5.546 6.444 10.683 8.847 16.553 6.791 16.235 7.476 32.661 2.505 49.518-2.495 8.523-5.858 16.713-8.897 24.986-2.841 7.776-6.289 15.426-9.088 23.256-6.295 17.66-19.545 28.48-35.097 37.3-6.89 3.91-14.388 6.42-21.95 8.64-8.302 2.47-16.405 5.3-25.107 6.2-15.58 1.64-30.52-.42-44.48-7.97-6.689-3.63-13.419-7.31-19.296-12.27-5.741-4.9-10.65-10.48-14.443-17.12-4.548-8-7.94-16.59-12.435-24.64a34.874 34.874 0 00-2.995-4.37c-2.931-3.642-5.351-7.613-8.605-10.914-3.986-3.999-8.138-7.778-12.072-11.818-6.036-6.123-11.281-12.968-15.859-20.263-4.389-6.847-8.08-13.999-11.26-21.475-1.888-4.483-3.287-9.103-4.05-13.892-.328-2.223-1.639-4.599-.235-7.013-1.178-8.399 2.656-15.683 5.415-23.131 1.214-3.29 3.054-6.228 4.581-9.341 1.226-2.529 3.351-4.152 5.048-6.201 4.6-5.584 9.974-10.419 15.213-15.315 7.02-6.415 14.196-12.526 21.467-18.628zM74.76 847.32c-2.632 8.032-5.766 15.867-7.165 24.794 3.948-7.889 7.966-21.665 7.165-24.794zm-3.005 40.743c.324.082.605.113.93.196 1.685-6.757 3.412-13.461 4.168-20.414-2.615 6.56-3.6 13.441-5.098 20.218zm47.307 47.973c-.118 7.212-1.689 14.219-1.422 21.379 1.811-7.029 2.159-14.169 1.422-21.379zm-.955-69.884c-1.613 2.154-1.548 12.048.055 14.789.604-5.115-.106-9.946-.055-14.789zm-69.402 82.624c2.507-3.387 6.188-14.062 6.013-17.266-2.063 5.86-3.95 11.406-6.013 17.266zm-9.808 113.774c-4.75-.89-9.532-1.51-14.364-1.23 4.71 1.28 9.49 1.46 14.364 1.23zm86.76-91.429c1.199-4.909 2.826-9.818 1.781-15.065-.594 5.021-1.24 10.085-1.781 15.065zm-45.934-99.066c-1.272 5.138-2.722 10.161-3.106 15.443 1.408-5.075 2.763-10.109 3.106-15.443zM128.19 1019.5c-1.288 2.67-2.711 5.27-4.355 7.7-1.591 2.4-3.412 4.72-5.139 7.05 4.593-4.21 8.929-10.87 9.494-14.75zm-19.905-23.269c2.527-4.004 5.584-13.321 5.068-15.563-.871 2.757-1.856 5.264-2.56 7.802-.724 2.726-1.71 5.233-2.508 7.761zM62.587 859.163c-.136-.062-.324-.083-.46-.145-1.986 2.969-2.594 6.373-3.432 9.704.136.062.272.124.46.145 1.16-3.249 2.322-6.497 3.432-9.704zM34.209 971.917c1.431-3.979 2.862-7.959 4.346-11.981-.136-.062-.272-.125-.46-.145-1.797 3.845-3.186 7.877-3.886 12.126zm-3.265-12.809c-1.5 1.548-3.966 8.933-3.92 11.125 1.421-3.886 2.624-7.51 3.92-11.125zm49.71-72.882c.187.02.323.083.553.155.786-3.289 1.519-6.537 1.563-10.002a651.631 651.631 0 00-2.117 9.847zm31.19 6.482c-.185-3.11-.411-6.272-.596-9.382-.629 3.164-.351 6.284.596 9.382zm14.114-43.67c.8 3.129 1.611 6.165 2.411 9.294-.216-3.256-.87-6.417-2.411-9.294zM54.731 1008.75c.177.12.313.18.49.3l3.742-6.87a3.527 3.527 0 01-.45-.24c-1.017 2.36-3.027 4.23-3.782 6.81zm-33.362-51.634c-1.395 1.893-2.193 3.992-2.532 6.237 1.623-1.82 1.963-4.065 2.532-6.237zm112.645-90.375c.716-1.776.723-3.581.395-5.376-.063-.292-.022-.668-.45-.667-.428.001-.469.377-.448.617.224 1.878.364 3.652.503 5.426zm2.287 90.421c-.339 2.245-.72 4.438-.391 6.66.997-2.173.72-4.437.391-6.66zm-12.277-96.023c.317-2.485-.379-5.698-1.342-6.896.496 2.431.919 4.663 1.342 6.896zm-202.8 32.085c1.393-1.893 2.83-3.733 4.224-5.625-1.834 1.559-3.406 3.337-4.225 5.625zm150.88-29.794c-.934 2.038-1.722 4.044-2.01 6.246a22.88 22.88 0 002.01-6.246zm-81.382 181.86c-.858-.86-.966-2.49-2.752-2.68.453 1.52 1.581 2.07 2.752 2.68zm66.603-78.749c-1.071 1.547-1.641 3.291-2.075 5.098 1.03-1.599 1.693-3.333 2.075-5.098zM-44.933 846.899l-.042-.052-4.323 3.475.042.052 4.323-3.475z" fill="#fff"/><path d="M76.08 261.276c.6 3.6 1.3 7.1 1.8 10.7.5 3.8.9 7.7 1.2 11.6.2 3.5.2 7 0 10.5-.1 1.4-.8 2.7-1 4.1-.2 1.6.2 3.3-.1 4.8-.3 1.8-.9 3.6-1.7 5.2-3.6 8.4-7.6 16.6-15.2 22-11 7.9-23.1 9.3-35.7 4.7-12.4-4.5-21.7-13.4-30-23.3-7.8-9.2-13.1-19.6-16.3-31.3-1.9-6.9-2.5-13.9-2.1-20.8.4-5.9 2.6-11.9 8.1-15.7 5-3.5 10.6-3.1 16.2-2.5 1 .1 2-.2 2.9 0 1 .2 2.2.7 2.9 1.4.7.7.8 1.6-.7 1.7-6.4.2-13.2 7.4-13.7 14.7-.3 3.7-1 7.4.3 11.1.4 1.1-.6 2.7-1.2 3.9-.1.2-1.5-.2-2.4-.3-.5 2.5 1 4.4 2.7 5.6 3.7 2.6 5.3 6.6 7.6 10.1 3.9 6 8.3 11.4 15.2 14.1 11.3 4.4 25.9.2 30.9-11.8 2.1-5.2 2.1-10.6.1-15.8-1.9-5-4.4-9.8-6.8-14.7-.4-.9-1.1-2.2-2.4-.6-.1.1-.8 0-1-.2-3.9-4.8-7.8-9.6-11.6-14.6 3.1 2.9 6.2 5.7 9.3 8.6l-.1.1c-.4-1-.5-2.2-1.1-3-6.5-7.9-14.1-14.1-24.3-16.6-8-2-15.5-1.1-22.8 3.1-6.4 3.7-10.9 8.6-13.3 15.4-1.2 3.4-1.4 6.9-1.6 10.6-.1 3.8-.4 7.6.1 11.4 1.8 13.3 6.8 25.3 15 36 2.6 3.4 5 7.1 7.9 10.2 3 3.1 6.5 5.8 9.9 8.5 2.1 1.7 4.3 3.3 6.4 4.8 12.8 9.1 26.7 9.7 41.2 5.1 14.7-4.6 24.4-14.4 29.9-28.7 4.8-12.4 6-25.1 3.9-38.1-1-6-2.9-11.9-4.5-18.5-1.3 1.8-2 2.8-2.7 3.8-.3 1.1-.7 1.9-1.2 2.7zm-60.7-12.5l.6-.6c2.7 2.4 5.8 4.5 8.1 7.2 6.7 8 12.5 16.4 14.6 26.8 1.1 5.3 1.3 10.7-3.1 14.7-4.2 3.8-9.4 3.2-14.4 1.5-6.3-2.1-10.8-6.5-14.6-11.7-2.3-3.2-2.2-3.2 1.6-4.2 8.9-2.3 13.9-8 13.8-16.4-.1-4.8-1.6-9.4-4.2-13.6-.9-1.3-1.6-2.5-2.4-3.7zm-17.3 14c.9-3.4 1.5-6.8 2.6-10 .6-1.9 2.1-3 4.3-1.9 2.1 1.2 4.3 2.4 6.4 3.7.1.1-.1.6-.1.9-.1.6-.3 1.2-.1 1.7 1 3 2.6 5.9 3.1 8.9 1.2 7.1-.3 12.2-9.4 11.8-.3 0-.6-.1-.8 0-1.6.4-2.4-.4-2.8-1.8-1.1-4.4-2.1-8.7-3.2-13.3zM72.78 252.176c.6-1 1-1.6 1.4-2.3.2.6.2 1.3.5 1.9.2.5.6.8.9 1.1 2.9-2.3 1.2-4.5.1-6.8-7.9-15.8-19.2-28.5-33.5-38.5-8-5.6-16.5-9.7-26.7-8.3-1.9.3-3.8 1-5.6 1.6-.4.1-.6.8-.9 1.3.6.1 1.1.4 1.7.4 2.4-.2 4.8-.6 7.2-.6 6.2-.1 11.3 2.9 16.1 6.2 4.1 2.8 8.7 5.3 12.1 8.9 6.4 6.7 12 14.2 18 21.3.5.6 1.3.8 1.9 1.3.3.2.6.5.7.9.4 1.2.5 2.6 1.2 3.6 1.4 2.6 3.1 5.1 4.9 8zm-17.9-31.6l.6-.6c1.6 1.7 3.1 3.5 4.7 5.2-.2.2-.4.3-.5.5l-4.8-5.1z" fill="#FEFBF4"/><path d="M76.08 261.276c.4-.8.9-1.6 1.3-2.5 0-.7-1.4-1.7.3-2.3.2-.1-.1-1.1-.1-1.6-.5.1-1.2-.1-1.6.2-2.4 1.6-2.3 5 .1 6.2zM33.48 254.676l.1-.1c.7 1.4 1.4 2.9 2.3 4.3 0 .1 1.3-.2 1.3-.5.3-1.1-2.3-3.6-3.7-3.7z" fill="#FEFBF4"/><path d="M1414.17 1027.82c.51.81 1.39-.22 1.91.44.66-.66 1.47-.22 2.2-.52.37.08-.37-1.02.59-.51.59.29 1.4.22 2.2.29.08-.44.15-.88.3-1.54.14.52.22.74.37.96.51-.3 1.02-.66 1.54-1.03-.08-.37-.22-.81-.37-1.25.81-.51 1.69-.73 2.87-.29-.81.36-1.47.73-2.21 1.02.22.44.37.81.59 1.18.37-.15.07-1.25 1.03-.59-.15.37-.37.74-.52 1.1.15.08.3.22.3.15.66-.37 1.32-.73 1.98-1.1.59 1.1 1.69 1.54 3.09 1.91-.15-.37-.22-.66-.37-1.03.37-.22.52-.95 1.32-.88-.14.59-.22 1.17-.29 1.76.66.3.74.44.52.88.95.74 1.1-.66 1.83-.73.08.51.15.88.22 1.25.37-.08.59-.59 1.18-.15.73.59 1.84.88 2.57 1.47.81.59 1.4.29 2.13 0 0 .37.08.66.08 1.17 1.02-.22 1.83.52 2.79.81 2.28.74 4.41 1.62 6.61 2.5 1.99.73 3.9 1.62 5.81 2.35 1.61.66 3.23 1.25 4.85 1.84 2.2.81 4.33 1.76 6.54 2.64 1.69.66 3.38 1.4 5.14 2.13.59.22 1.03.74 1.77.59.14-.07.36.07.51.15 1.54 1.39 3.75 1.39 5.37 2.57.07.07.22.07.36.07 1.69-.29 2.87.74 4.26 1.4 2.14.95 4.41 1.69 6.69 2.27.52.15 1.03.22 1.4.44.37.22.81.08 1.17.23.45.22.89.51 1.25.88.44.51.74-.52 1.33 0 .36.36 1.17.36 1.69.58.88.44 1.98.3 2.79 1.11.15.14.66.14.95 0 .52-.22.67-.3.96.29.15.37 1.03.44 1.54.51 1.77.3 3.31 1.25 5.15 1.25 1.39.96 3.08.88 4.7 1.32.37.08.74.23 1.1.3.66.15 1.4-.15 2.06.37.52.36 1.4-.22 2.06.44.15.14.66 0 .88-.15.66-.44.29.22.44.29.22.15.59 0 .81.08 1.1.51 2.2.66 3.38.51 2.06-.29 4.04.52 6.03.44.58 0 1.25.44 1.83-.07 1.18.59 2.36-.22 3.46 0 .51.07 1.03.51 1.39.37.96-.37 1.91-.3 2.87-.37.96-.07 1.91-.22 2.87-.37.14 0 .29 0 .36-.07.44-.66 1.11-.22 1.55-.44 1.03-.37 2.13-.15 3.08-.74.74-.44 1.4-.81 1.77-1.25.14.3.29.59.44.96 1.47-1.1 3.6-.96 4.85-2.87h1.47c.22-.36.37-.8.51-.8 1.03 0 1.84-.08 1.77-1.47 0-.22.51-.44 1.25-.96-.3.81-.37 1.1-.59 1.69.81-.51 1.32-.88 1.83-1.25.52-.36 1.11-.73 1.4-1.17.44-.59 1.18-.74 1.54-1.32.3-.52.67-1.11 1.18-1.55.44-.44.73-1.1 1.32-1.47.44-.22.52-1.02.74-1.61-.15-.15-.3-.37-.52-.52-.14.15-.29.3-.58.52.07-.44 0-.66.14-.88.44-.67 1.18-.96 1.84-1.33.29-.14.66-.29.73-.58.15-.37 0-.81.08-1.18.14-.29.73-.44.73-.66 0-1.03.74-1.98.44-3.01.74-1.69.3-3.53.37-5.22.22-3.23-.66-6.31-1.76-9.25-1.18-3.38-3.02-6.47-5.22-9.26-1.54-1.98-3.01-3.97-4.7-5.87-2.28-2.58-4.34-5.37-6.25-8.232-.59-.882-.88-1.91-1.54-2.791-.59-.808-.96-1.837-1.33-2.865-.29-.882-.36-1.837-.51-2.791-.15-.735.22-1.543-.37-2.278-.15-.147 0-.514.08-.734.07-.294.29-.588.29-.882.22-4.26 2.57-7.859 5.88-10.21 1.98-1.469 4.11-2.571 6.17-3.893 2.87-1.91 5.95-3.453 8.82-5.363 2.2-1.469 4.63-2.791 6.91-4.113 2.57-1.543 5.36-2.791 7.64-4.848 1.25-.221 1.91-1.396 3.01-1.837 1.25-.514 2.06-1.689 3.16-2.424 1.33-.881 2.36-2.056 3.53-3.085.66-.588 1.18-1.322 2.06-1.763.44-.22.95-.661 1.1-1.102.37-.955 1.18-1.395 1.77-2.056 2.86-3.232 5.07-6.832 6.46-10.945.59-1.69.74-3.526 1.55-5.142.07-1.469.8-2.865.73-4.261-.07-1.395.22-2.865-.07-4.187-.44-1.983-.44-4.113-1.55-5.95-.36-2.718-3.08-7.566-4.26-9.476-1.4-2.203-3.38-3.893-5.29-5.582-.96-.882-2.13-1.69-3.53-1.984-.88-.22-1.69-.661-2.64-.881-.88-.22-1.55-.367-2.35-.074-.3.147-.81-.22-1.18-.22-.74-.073-1.47-.073-2.21 0-.51.074-1.02.588-1.61.074-.59.587-1.4.073-2.06.293-.59.221-1.1.588-1.69.808-.96.294-1.91.515-2.87.808-.29.074-.58.221-.88.368-1.54 1.028-3.3 1.322-5 1.983-1.76.735-3.67 1.175-5.36 2.057-1.25.587-2.57.955-3.82 1.469-1.32.514-2.57 1.175-3.9 1.689-2.72.955-5.29 2.424-7.93 3.6-3.38 1.616-6.69 3.158-10.07 4.774-5.81 2.865-11.69 5.73-17.49 8.521-1.47.661-2.94 1.396-4.48 1.837-.74.22-1.33.661-2.06.881-1.1.294-2.21.588-3.31.808-.88.147-1.84.147-2.64.441-1.4.588-2.94.588-4.34 1.102-1.54.514-3.16-.147-4.41-1.249-.59-.441-1.03-1.028-1.54-1.543-2.13-1.909-2.65-4.26-1.77-6.978.37-1.175.89-2.35.81-3.673.81-.734 0-1.91.74-2.718-.15-1.469.22-2.938-.3-4.48-.36-1.029-.66-2.204-.51-3.379.37-3.086-.3-6.171-.44-9.256-.15-2.13-.66-4.334-1.25-6.464-.44-1.469-1.1-2.791-1.54-4.187-.59-1.543-1.69-2.938-2.65-4.334-1.98-2.938-4.7-5.142-7.64-7.052-2.13-1.395-4.41-2.571-6.84-3.379-1.03-.294-2.13-.44-3.16-.734-1.1-.294-2.28 0-3.23-.368-1.03-.367-2.06-.367-3.09-.293-1.91.147-3.82.44-5.66.808-1.83.293-3.52 1.101-5.29 1.763-2.28.881-4.41 1.983-6.39 3.452-.29.22-.66.367-.88.661-1.18 1.543-2.5 3.085-3.53 4.775-1.84 2.791-3.82 4.774-6.39 6.758-.44.294-.67.808-1.03 1.249-.66-.221-1.1-.515-1.62-.515-.51 0-.95-.294-1.47-.367a3.03 3.03 0 00-1.62 0c-.51.147-.8-.588-1.32-.22-.15.147-.59-.147-.95-.294-.37-.147-.74-.147-1.03-.367-.44-.294-.66.587-1.18.22-.29-.22-.73-.074-1.1-.22-.44-.074-.81-.294-1.25-.368-.59-.147-1.1.221-1.62.294-.36.074-.81-.588-1.25-.734-.58-.147-1.25-.074-1.83-.368-.59-.22-1.55-.44-1.84.735 0 .073-.59 0-.96 0 .15-.367.3-.588.44-.882-.66-.293-1.17-1.101-1.91-.367-.29-.441-.51.074-.73 0-.52-.073-.74-1.322-1.54-.441-.52-.22-1.11-.514-1.69-.661-.22-.073-.59.368-.81.294-.3-.073-.59-.661-.96-.22-.37.44-.51-.221-.73-.074-.15.147-.22.441-.3.661-1.32-.44-1.32-.44-1.69-1.616-.36.147-.73.294-1.03.514-.22.221-.44.515-.58.735-.22-.367-.44-.735-.67-1.102-2.79.735-3.01.661-4.04-1.175h-1.32c-.07.22-.22.441-.37.734-.22-1.028-.22-1.028-1.25-1.542-.44-.147.37 1.102-.58.514-.52-.294-1.03-.294-1.62.074-.3.146-.74.146-1.03 0-.66-.221-1.54-.221-1.4-1.323 0-.22-.29-.514-.88-.147-.51.368-1.32.294-2.13.441.15-.367.22-.661.37-1.102-1.1.441-2.06.661-2.94-.22-.3-.294-.66.367-1.25 0-.81-.514-1.91-.514-3.01-.808 0-.22-.08-.588-.15-.882-.07-.073-.15-.073-.22-.073-.52.073-2.35-.22-2.94-.367-.96-.294-1.91-.588-2.87-.808-4.48-1.176-8.82-2.939-13.3-4.261-3.16-.955-6.32-1.836-9.55-2.644-2.72-.661-5.44-1.322-8.09-2.204-1.47-.441-3.08-.661-4.63-.955-.51-.073-.95-.294-1.47-.367-.8-.147-1.61-.294-2.42-.441-.81-.147-1.69-.147-2.43-.441-1.76-.587-3.6-.514-5.36-1.101-.96-.368-2.13-.074-3.23-.441-.89-.294-1.99-.074-2.8-.514-.88-.515-1.83-.221-2.72-.661-.88-.441-2.13-.074-3.23-.441-.44-.147-1.1.22-1.54.441-.66.367-1.32.514-1.91-.074-.3-.294-3.82-1.689-3.97-1.542-.74.734-1.4.073-2.28-.221.07.441.15.735.22.955.07.22.15.441.22.735-.95-.294-.95-.955-.88-1.616-.37.22-.66.514-.73.44-.45-.293-.81-.147-1.33 0-.37.074-.81-.22-1.25-.367-.22-.073-.51-.073-.81 0-.36.074-.66.808-1.17.147-.44-.588-.81.367-1.1.073-.74-.808-1.33.147-1.91.147-.52.074-1.25.147-1.4.955 0 .074-.52.221-.66.074-.3-.147-.52-.514-.81-.221-.88.808-2.21.955-3.09 1.837-.22.22-.51.441-.81.441-.58-.074-.8.367-1.1.734-.37.441-.81.882-1.25 1.249-.51.367-.81.881-1.61.955-.59.073-.96.955-1.69 1.249-2.14.808-4.05 1.983-5.88 3.232-1.77 1.175-3.68 2.35-5.29 3.819-1.03.882-2.06 1.763-3.09 2.718-1.54 1.543-2.65 3.453-4.04 5.142-1.99 2.277-3.09 4.995-4.34 7.64-1.17 2.35-1.84 4.848-2.5 7.419-.36 1.542-.29 3.232-1.1 4.701v.22c.29 1.616-.44 3.085-.44 4.628.07 1.543 0 3.085 0 4.628 0 .587.29 1.248.37 1.836.07.588 0 1.102.36 1.69.23.44.15 1.101.37 1.616.15.293-.22.955-.37 1.395-.07.515-.07 1.029.67 1.102.14 1.102 1.02 1.91 1.17 2.865.3 1.91 1.77 3.159 2.21 4.922.88.514.66 1.762 1.54 2.424.66.514.96 1.469 1.47 2.203.59.808 1.25 1.469 1.84 2.277.14.147.29.368.29.441-.29 1.175.66 1.616 1.25 2.277 1.03 1.029 2.06 2.131 3.09 3.085 1.83 1.69 3.74 3.306 5.88 4.702 1.39.881 2.49 2.277 3.96 3.011 1.62.882 3.09 1.984 4.63 2.939 1.99 1.175 3.97 2.277 6.03 3.379 2.13 1.175 4.34 2.203 6.39 3.379 1.25.734 2.43 1.616 3.75 2.13 1.84.734 3.38 1.836 5.07 2.791 2.06 1.102 4.04 2.571 6.03 3.893 1.69 1.176 3.01 2.718 4.48 4.114.59.588 1.1 1.175 1.91 1.616.74.367 1.25 1.102 1.62 1.91.73 1.542 1.47 3.158 1.91 4.774.22.662.07 1.396.22 2.131.07.514-.44 1.395.66 1.542.07 0 .15.441.15.735v4.187c0 .881-.74 1.689-.44 2.644-.81.808-.22 1.984-.74 2.938-.44.808-.29 1.984-.51 3.012-.3 1.249-.96 2.498-1.03 3.747-.07 1.54-.88 2.72-1.1 4.19-.22 1.32-1.11 2.49-1.33 3.82-.29 1.76-.88 3.38-1.32 5.06-.07.15.22.45.37.67-.22.07-.44.14-.74.22-.07 1.24-.29 2.42-.73 3.67-.15.44 0 1.03-.07 1.54-.08.52-.3.96-.37 1.47-.08.59-.08 1.1-.37 1.69-.29.44-.37 1.1-.44 1.62 0 .58-.15 1.1-.44 1.61-.3.44.81.96-.08 1.47-.58.37-.07 1.03-.36 1.47-.59.88-.37 1.98-.74 2.94-.22.59-.36 1.32-.44 1.98-.15.66.15 1.4-.37 1.99.67.36-.07.58-.07.88 0 .29-.22.58-.22.88-.07.37 0 .73 0 1.1 0 .15.15.37.07.44-1.03.81-.51 2.2-1.03 3.23-.22.44-.22 1.1-.36 1.62-.22.73-.66 1.54-.52 2.42.08.37-.14.88-.36 1.25-.45.59-.37 1.25-.37 1.84.07.95-.15.88-.37 1.98-.22.96-.81 1.84-.81 2.87 0 .88-1.1 1.76-.07 2.71 0 0-.3.37-.44.52-.44.51-.37 1.1-.52 1.69-.22.73-.22 1.32.22 1.91-.22.07-.44.07-.58.14-.08.08-.15.08-.15.15l-.44 3.45c-.15 1.03.37 2.06-.37 3.09-.22.29.66.81 0 1.32-.15.15.15.74.22 1.18-.22.07-.44.14-.66.22.07 1.17 1.32 2.05.44 3.3.59.22 1.62.08 1.54 1.32-.36-.14-.58-.29-.88-.44-.14.08-.29.15-.29.22 0 .45.07.89.15 1.33 0 .14.07.36.07.44-1.03.36.07 1.25-.59 1.91-.59.58.15 1.47.44 2.13.22.66.3 1.25.37 1.83.07.89.07 1.91.44 2.57.44.74.07 1.55.44 2.21.37.66.81 1.32.66 2.13.96 1.1.88 2.57 1.62 3.75.15.22.51.29.81.44v1.98c.51.29 1.25.44 1.25 1.25.95.51-.3 1.1.07 1.69.15 0 .44.14.51 0 .23-.22.37-.44.74-.08.22.3.07.37 0 .59-.22.66.29 1.54.44 1.47.74-.73.81.22 1.18.37.14.07.29.37.29.44-.29 1.25.74 1.54 1.4 1.98 2.05 1.25 2.13 1.18 3.82 1.25 0 .37.07.74 0 1.18-.08.58.22.95.59 1.17 1.25.74 2.42 1.47 3.74 2.13 1.25.59 2.5 1.25 3.83 1.4 1.98.22 3.82 1.1 5.8.95 1.91-.14 3.9-.07 5.81 0 2.05 0 3.96-.59 5.95-1.03 1.32-.29 2.64-.73 3.89-1.32.81-.37 1.69-.59 2.65-.44 1.25.22 2.35-.29 3.45-.81 3.02-1.32 5.29-3.01 7.87-4.85 1.32-.95 2.64-1.76 3.74-3.01 1.84-1.98 3.16-4.11 4.41-7.2.67-1.61 1.55-3.08 2.5-4.55 1.84-2.79 3.02-5.51 4.71-9.04 1.39-2.93 2.49-6.09 3.67-9.1.66-1.62 1.32-3.16 1.91-4.85.52-1.62 1.1-3.23 2.06-4.78.59-.88.95-2.05 1.54-2.93 1.1-1.77 1.91-3.6 2.79-5.44 1.03-2.2 2.21-4.41 3.16-6.68.81-2.06 2.14-3.75 2.94-5.81.81-1.98 1.91-3.89 2.87-5.8.96-1.84 2.2-3.38 4.19-4.19 1.47-.44 2.5-1.17 3.31-2.2zm5.43-6.69l-.29-.29c.07-.07.22-.29.29-.29.81.07 1.69.07 1.99-.22 1.03-1.11 2.35-.67 3.53-.45 1.02.23 2.05.89 3.01 1.33.29.14.66.36.95.36.15 0 .3-.44.59-.07.15.22.3.52.66 1.1-1.17-.51-1.98.88-2.94-.14 0 0-.44.22-.51.36-.07.52-.52.52-.74.37-1.02-.59-2.13-.29-3.23-.44-.07-.44-.15-.81-.15-.88-.29.29-.58.59-.88.88.08 0 .3.07.22.07-.29.3-.59.59-.88.88-.15-.66.44-1.76-.81-2.13-.59.52-1.25.59-2.06.22.45-.07.81-.36 1.25-.66zm55.56-139.783c.96-.515 1.69-.882 2.43-1.249.14.147.29.294.51.441-.15.146-.29.293-.37.367.89.734 1.77 1.395 2.65 2.13-.07.073-.3.294-.3.367.3.514.67.955.96 1.396.66 1.102 1.47 2.13.81 3.526-.88-.588-1.32-1.763-2.57-1.69.14-.367.44-.734.29-.881-.44-.661-.88-1.469-1.54-1.91-.66-.441-1.25-1.028-1.4-1.616-.15-.808-.73-.588-1.47-.881zM1326.79 1097.6c-.52-.73-1.03-1.32-1.32-1.98-1.18-2.21-3.02-4.04-3.24-6.69 0-.07-.22-.14-.29-.29-.59-.81-.96-1.62-.88-2.64.07-1.03-.22-1.99-.67-2.94-.22-.44-.29-.81.3-1.25.29.37.59.66.73 1.03.22.58.22 1.25.44 1.83.52 1.62.81 3.38 1.77 4.85.14.22.29.52.22.66-.22 1.03.37 1.99.88 2.65 1.1 1.32 1.32 3.08 2.72 4.11-.29.22-.44.37-.66.66zm.37-46.72c.29.52.66 1.11.58 1.18-.58.59-.29 1.25-.29 1.91-.07.66-.15 1.39 0 1.98.22.66-.74 1.1-.07 1.69-.67.52-.3 1.18-.37 1.84-.08.66 0 1.32 0 1.98v7.64c0 .22-.08.51-.15.74-.15-1.03-.51-2.06-.59-3.02-.14-2.35 0-4.7-.44-7.05-.22-.95.22-2.06.3-3.01.14-1.98.58-3.82 1.03-5.88zm-26.24-163.51c-.37.22-.66.441-1.03.661-.29.22-.66.367-.95.588.51.955.51.955-.15 1.395-.22.221-.59.441-.66.661-.15.955-.74.441-1.03.441.07-.734.15-1.395.15-2.057-.89-.587 0-1.101 0-1.689 0-.367.29-.661.51-.955.07-.073.51.22.81.441.22-.514.37-.882.66-1.469-.59.22-.88.367-1.18.514-.36-.882.59-.514.74-.882.07-.44 0-.881 0-1.469h2.72c.14-.367.22-.514.37-.955.07 1.543.07 1.543-.59 2.131a6.408 6.408 0 01-.22-.735c-.37.367-.66.661-.96.881-.37-.22-.59-.293-.95-.514.14 1.249 1.02 1.469 1.61 1.91.15.367.15.808.15 1.102zm-15.65 49.803c-.3 0-.44.074-.52.074-1.1-.955-2.35-1.91-3.38-2.939-2.2-2.13-3.97-4.701-5.58-7.272-.74-1.175-1.62-2.35-1.91-3.819-.15-.662.36-.515.44-.808 1.39 2.644 2.57 5.435 4.55 7.712 2.06 2.425 4.27 4.702 6.4 7.052zm205.25-53.402c1.32.734 1.84 2.056 2.43 3.305.58 1.175.88 2.424 1.39 3.599.59 1.323.88 2.645.96 3.967.07 1.396.95 2.718.29 4.187-.22-.367-.44-.661-.59-1.028-.07-.221 0-.514-.07-.808-.22-.882-.44-1.837-.66-2.718-.22-.955-.74-1.91-.59-2.938-1.03-2.204-1.4-4.628-2.79-6.611-.15-.294-.22-.662-.37-.955zm-193.13 39.152c.15-.074.22-.147.37-.221.29.368.51.808.81 1.102.37.294 1.03.294 1.32.588.66.661 1.47.955 2.21 1.396.29 1.248 1.39 1.542 2.2 2.203.66.514 1.32 1.029 1.91 1.543.15.147.22.514.3.734-.67-.293-1.03-.881-1.84-.661-.59.147-.52-.367-.74-.661-.14-.22-.95-.147-1.03-.294-.14-.808-.73-.881-1.25-1.248-.58-.368-1.24-.735-1.61-1.249-.44-.514-1.03-.514-1.55-.661.15-.294.23-.661.45-1.102h-1.69c.14-.588.14-1.029.14-1.469z" fill="#382843"/><path d="M1586.94 814.618c-.12-1.396 1.33-2.185.3-3.52-.42-.546.61-.788.97-1.153 2-2.123 4.31-3.943 6.67-5.642 1.03-.668 2.43-.364 3.58.182.3.121.61.364.43.788-.19.547-.55.061-.85.122-.37.06-.79 0-1.09.425.84.728 1.57 1.638 2.91 1.698.91.061.66 1.093.72 1.578.06 1.092.79 1.396 1.4 2.002.61.546.85 1.335 1.94.91.42-.182 1.15.122 1.45.789-.54.546-1.03 0-1.51-.182-.3 1.456.79 1.335 1.58 1.578.42.121.97.06 1.03.667.06.668-.79.304-.97.85 1.21.303 1.63 1.031.3 1.638-.91.425-.12 1.456-1.09 1.699.06-.607-.37-1.092-.67-1.638-.79.364.06.97-.18 1.395-.85.061-1.09-1.153-2.06-.667.24-.728 1.94-1.396-.12-1.457-.67 0-1.04-1.274-2.01-.485-.24.182-.3-.364-.3-.546-.06-1.335-1.09-2.063-2.06-2.002-1.15 0-2.79-.668-3.46 1.274-.18.485-.66.849-1.09 1.213-.6.546-1.39.789-1.09 2.003.18.606-.55 1.638-1.76 1.335-1.15-.304-1.88.121-1.82 1.334.06.789-.3.365-.6.547-1.28.606-2.92-.729-4.01.91-.54.788-.91 1.153.49 1.213-1.7.486-3.4.971-5.03 1.517-1.1.364-1.76-.121-2.31-.91-.3-.364-.3-.789-1.03-.667-.73.121-1.33-.607-1.52-1.275-.36-1.153-1.21-1.941-1.88-2.851-.78-1.093-1.75-1.032-2.48-.182-1.7 2.123-4.19 3.519-5.76 5.764-.67.91-2.37.728-2.43 2.305-.42 0-.85-.121-1.27-.06-.91.182-1.82.424-2.73.728-.79.243-1.46.243-1.58-1.092-.18 1.577-.97 1.577-2.06 1.213-.36-.121-1.03 0-.97-.485 0-.243.49-.91 1.09-.607.49.243.91.364.91-.364 0-.789-.73-.364-1.03-.303-2.3.364-4-.425-5.15-2.488-.49-.85-1.46-.971-2.31-.668-2.67 1.093-5.52 2.367-7.28 4.612-1.09 1.456-2.6 2.306-3.76 3.64-.97 1.153-2.48 1.76-3.39 3.156-.79 1.213-4.43 1.031-5.34-.183-1.7-2.245-4.24-3.822-5.09-6.735-.24-.788-.79-.606-1.27-.303-.98.546-1.88 1.092-2.85 1.638-.49.304-.91.789-1.64.425-.73-.364-.97.485-1.34.91-.18.243 0 .91-.3.85-1.64-.243-1.52 1.517-2.49 2.063-.6.364-.6.364-1.63.303-.31 0-.67.303-.97.546-2.13 1.82-4.49 3.216-7.22 4.005-1.21.364-1.88.06-2.36-.789-.97-1.699-2.55-2.791-3.83-4.187-.42-.485-.78-.606-1.27 0-1.58 2.124-3.46 3.944-5.7 5.4-.48.304-.3 1.275-.91 1.396-1.45.364-2.91.607-4.43.849-.36.061-.6-.242-.36-.667.18-.425.06-.728-.42-.849-1.82-.547-2.19-2.003-.97-3.58 1.82-2.245 3.7-4.49 5.51-6.735l5.46-6.735c.61-.789 1.28-1.578 2.12-2.063.97-.607 2.31-.789 2.79.182.97 1.82 2.73 3.094 3.16 5.218.3 1.335.79.91 1.51.364 4.67-3.398 9.22-6.614 14.56-8.434.12-.061.18-.061.3-.121 6.31-2.003 7.1-.547 9.52 4.611 1.21 2.548.55 2.852 3.22.728 2.72-2.184 5.21-4.733 8.18-6.674 2.43-1.578 4.79-3.155 7.95-2.67 2.3.364 3.88 1.82 5.33 3.398 2.43 2.609 4.79 2.002 7.28.06 2.73-2.123 5.27-4.429 7.88-6.613 3.1-2.549 4.91-2.185 7.4 1.335.55.788.91 1.638 1.52 2.366 1.39 1.699 3.09 1.881 4.97.85 1.82-.971 3.7-1.76 5.4-2.974.24-.182.54-.728.91-.242.24.364 0 .728-.19 1.092-.42.91-.42.91.55 2.124zm5.88-2.124c.55-.85.85-1.335-.24-2.002-.55-.365-1.64-.425-1.64-1.578 0-.182-.36-.061-.54.061-.12.121-.49.06-.25.424.79 1.153.19 1.881-.78 2.67.78-.182 1.51.789 2.24-.182.18-.243-.18-1.092.55-.849.54.242.66.788.66 1.456zm-72.46 6.856c-.06-.121-.13-.303-.13-.425-2.36-.06-4.36.911-6.18 2.367 2.06-.668 4.18-1.335 6.31-1.942zm61.97-3.64c-1.45.364-2.49 1.031-3.64 1.031-.36 0-.91.061-.79.546.07.364.55.425.97.425 1.46.182 2.49-.485 3.46-2.002zm.97 0c1.09-.425 2.73.303 2.25-1.881-.85.424-1.88.606-2.25 1.881zm5.64-.182c-1.03.849-1.82 1.517-2.67 2.123-.12.122-.66-.242-.36.304.06.121.48.242.54.242.67-.91 2.25-.91 2.49-2.669zm-71.86 12.984c1.34-.728 2.61-1.456 3.94-2.184-1.57.182-2.85.971-3.94 2.184zM1582.09 847.989c-3.28.91-6.13.243-8.43-2.305-.61-.607-1.33-1.214-2.18-.911-2.25.728-4.61.546-6.8 1.578-3.33 1.578-6.48 3.641-10.06 4.733-1.34.424-2.73.788-4.13 1.213-.12.728.73.182.85.607-.18.061-.3.182-.48.182-2.25-.485-4.85-.243-6.43-2.366-.61-.789-1.52-.971-2.12-1.76-.18-.243-1.4.061-2 .303-3.52 1.578-7.04 3.277-10.62 4.794-1.21.546-2.6.789-3.94 1.092-.54.121-1.03.182-1.51-.485-.37-.486-1.16-1.578-2.13-.547-.72-.849-2.12 0-2.72-1.395-.67-1.578-1.95-1.335-3.52-.789-2.18.789-3.16 2.913-5.22 3.641-.42.182-.66.546-.85.971-.12.364-.3.849-.48.849-1.82.182-1.64 2.063-2.67 2.912-1.58 1.335-3.15 2.792-5.21 3.338-.67.182-.61.182-.97 1.031-.07.121-.37.243-.55.303-1.33.365-1.94.061-3.4-1.516-.3-.304-1.03-.122-1.51-.243-1.82-.243-2.25-2.184-3.64-2.973-.24-.122-.61-.728-.73-.364-.54 1.517-2.61 1.456-3.09 3.094-.12.486-.55.971-.85 1.396-.36.485-.79 1.092-1.39.971-.55-.061-.55-.789-.55-1.275 0-.97-1.4-.788-1.33-2.002.12-1.396.6-2.67 1.27-3.701 1.76-2.549 2.49-5.522 3.46-8.313.3-.789.54-1.395 1.51-1.456.91-.061 1.34.303 1.94 1.031 1.15 1.517 1.82 3.156 2.43 4.855.36.97 1.03 1.274 1.94 1.152 2.12-.364 4.18-1.031 5.52-2.973 2.48-3.58 6.12-5.703 9.64-8.009.85-.546 1.57-1.335 2.36-2.002.91-.789 2-1.153 3.16-1.153 1.21 0 1.94.667 2.48 1.759 1.52 3.095 2.85 3.52 6.07 2.306 3.45-1.335 6.85-2.791 10.43-3.822 1.63-.486 3.15-1.396 4.97-1.457 1.52 0 2.91.182 3.76 1.517.91 1.456 2.18 1.517 3.58 1.214 3.88-.85 7.58-2.185 11.16-3.944 2.72-1.335 5.51-2.549 8.36-3.398 2.19-.607 4.43-.607 6.19 1.153 1.45 1.456 3.15 1.577 5.03 1.153 4.73-1.092 9.16-3.034 13.59-4.976 5.15-2.245 10.12-5.036 15.46-6.977 1.27-.486 2.49-1.032 3.94-.425-.48 1.092-1.45 1.153-2.24 1.335-1.76.485-3.4 1.153-4.97 2.063-.19.121-.61.303-.37.606.24.364.43.061.73-.06 2.06-.91 3.94-2.306 6.37-2.185.6.061 1.45-.303 1.09.911-.12.424.42.364.66.546.25.182.61.485.43.606-.67.486-.67 1.639-1.33 1.942-2.61 1.032-5.1 2.427-7.34 3.944-2.49 1.76-5.64 2.609-7.52 5.218-2-.121-2.55 2.488-4.73 2.427-1.4-.061-2.43 1.517-3.52 2.366-2.06 1.578-4.43 2.124-6.85 2.67 1.15-1.092 2.91-1.031 4.18-2.063-2 .728-4.06 1.092-6.12 1.638.6.668 1.45-.424 1.94.425zm-47.73-3.155c-3.82.061-6.85 2.609-10.55 3.034-.36.061-.79.364-.73.789.13.485.67.485 1.1.364 1.82-.486 3.57-1.214 5.39-1.639 1.88-.485 3.22-1.638 4.79-2.548 2.13.061 3.95-.91 5.95-1.638-1.4-1.214-4.13-.425-5.95 1.638zm23.9-3.155c-3.46 1.577-7.04 2.791-10.86 3.58 1.88 1.213 9.22-1.274 10.86-3.58zm11.28-3.459c-1.04-.97-4.07-.121-5.16 1.457 1.52-.971 3.4-.911 5.16-1.457zm-73.5 19.841c1.82.243 2.97 0 3.94-1.577-1.39.546-2.61.607-3.94 1.577zm63.73-16.139c.97-.789 2.37-.971 3.1-2.124-1.1.607-2.85.182-3.1 2.124zm-9.21 8.919c1.75.303 4.18-.425 5.63-1.578-1.94.486-3.76 1.032-5.63 1.578zm-20.08 1.699c-1.51.243-3.03.546-4.36 1.456 1.57 0 3.03-.485 4.36-1.456zm47.55-12.075c0 .182.06.304.06.486 1.51 0 2.97-.364 4.18-1.396-1.39.304-2.85.607-4.24.91zM1563.47 877.781c.67.304 1.52-.243 2.06.607-.85.546-1.76.667-2.66.546-.49-.061-.97-.121-1.46 0-1.15.425-2.06.425-2.06-1.274 0-.789-2.79-2.185-3.7-2.002-1.15.182-2.55.182-3.34.606-2.18 1.214-4.79 1.76-6.36 3.884-.31.424-.73.364-1.16.485-1.45.546-3.27.364-4.18 2.124-.36.728-.49-.729-1.27-.364-.85.424-1.94.424-2.91.485-2.43.182-3.76-.425-4.19-2.67-.3-1.456-.85-.91-1.64-.728.31-.728.97-1.395-.42-1.517-.91-.06-.97-1.153-1.39-1.699-.31-.424.36-.182.6-.303.43-.182.91-.303.97-.85-.48-.06-.36-1.092-1.21-.728-.55.243-1.15-.121-1.7-.546.49 1.274-.61 2.124-.73 3.277-.06.849-.42 1.699-.18 2.548.18.607-.3.85-.48.546-.55-.971-1.88-1.153-2.13-2.427-.06-.485.19-.546.49-.728.3-.121 1.09.121.79-.364-.61-.91-.31-1.82-.43-2.73-1.09 1.031-.85-.729-1.45-.789-.18 0-.31-1.092.36-1.092 1.82 0 1.64-1.457 1.58-2.367-.12-1.456.6-2.123 1.64-2.791.6.304-.25 1.456.84 1.517.85.061.79-.789 1.16-1.213.18-.243.48-.486.24-.85s-.61-.121-.91-.061c-1.52.425-1.33-1.031-1.09-1.334.97-1.032 1.33-2.488 2.54-3.277 1.28-.849 2.13-.546 2.37.971 0 .182.12.303.24.425 2.43 2.305 1.94 5.278 1.76 8.13-.12 2.427-.06 2.549 2.37 1.942 2.79-.668 5.33-2.063 7.88-3.337 2.97-1.396 5.88-2.973 9.1-3.823 2.54-.667 4.85-.243 6.54 1.942.91 1.153 1.82 1.274 3.16.788 4.42-1.698 8.43-4.186 12.49-6.553 2-1.152 4.12-2.063 6.25-2.851 2.48-.91 5.09-.304 6.91 1.759 1.7 1.881 3.64 2.367 6.06 2.003 6.73-.971 13.16-3.156 19.53-5.34 6.61-2.306 13.04-4.854 19.47-7.584.36-.122.72-.304 1.09-.304.6-.06 1.39-.06 1.57.546.19.486-.6.607-.97.91-.36.304-1.21.304-.91.911.31.667.97.121 1.46.121.67-.061 2.3-.91 1.09 1.031-.06.122 0 .304.06.425 1.46 1.942.73 3.641-1.7 4.612a36.711 36.711 0 00-4.85 2.427c-2.97 1.82-6.18 3.155-9.28 4.672-5.45 2.669-10.97 5.036-16.73 6.977-3.34 1.093-6.79 1.699-10.37 1.578-.55 0-1.09 0-1.58.425.43.424.97.667 1.52.788-.91-.182-1.94-.121-2.61-1.031-.3-.364-.67-.364-1.15-.425-.61-.121-1.64-.182-1.09-1.335.06-.06.06-.182.06-.303-1.4.364-.91-1.335-1.7-1.517-1.03-.243-1.82-.789-2.55-1.577-.54-.547-1.27-.547-2-.425-.61.121-1.33 1.031-1.46-.425 0 0-.42-.061-.6 0-.37.121-.37.425-.18.667.36.668.24 1.275-.43 1.457-1.03.303-1.7 1.456-2.91 1.395-.61-.06-.3-.849-.79-1.213-.36.849-1.88 1.031-1.33 2.366 0 .061-.12.243-.18.243-1.09-.122-1.22.425-1.46 1.395-.24 1.032-1.7 1.093-2.61 1.457-.12.06-.42.121-.42.242-.06 2.245-1.94.789-2.79 1.335-.24.182-.49-.121-.73-.425-.85-1.334-1.64-1.334-2.54-.242-.25.242-.79.485-1.28.849zm34.93-12.499c-.48-.121-5.46-.061-5.88.121-.18.061-.49.122-.43.425.07.182.19.425.37.546 1.09.607 4.79-.061 5.94-1.092zm-17.46-3.398c1.21 1.153 2.66.425 4.06.425.3 0 .48-.243.48-.546 0-.243-.12-.486-.36-.425-1.39.546-2.97-.728-4.18.546zM1538 874.869c-1.03.121-2.06.242-3.03.424-.24.061-.85-.424-.85.365 0 .546.3.667.79.849 1.52.425 2.18-.728 3.09-1.638zm63.55-2.973c-2.3.485-4.6.667-6.91 1.031 2.43.486 4.67-.303 6.91-1.031zm-6.54-2.306c0 .061 0 .182.06.243 1.63-.182 3.27-.425 4.85-.607.12 0 .24-.243.24-.304-.06-.303-.36-.485-.61-.424-1.51.303-3.03.728-4.54 1.092zm9.94-6.31c-1.46 0-2.67.667-3.94 1.152 1.27-.485 2.97.911 3.94-1.152zm-78.47 7.584c-.48.425-.97.728-.67 1.396.31.667.85.91 2 1.031-1.15-.667-.97-1.577-1.33-2.427zm11.46 10.982c-1.15-1.213-1.15-1.213-2.55.304.85-.122 1.64-.182 2.55-.304zM1602.4 874.019c-1.33.789-2.73 1.092-4.54 1.092 1.51-1.092 3.15-.485 4.54-1.092z" fill="#FEFBF4"/></svg>